HIERARCHY
ROOT Hips
{
	OFFSET	0.00	0.00	0.00
	CHANNELS 6 Xposition Yposition Zposition Zrotation Xrotation Yrotation
	JOINT LeftUpLeg
	{
		OFFSET	 0.126116	-0.014019	-0.065224
		CHANNELS 3 Zrotation Xrotation Yrotation
		JOINT LeftLeg
		{
			OFFSET	 0.000000	 0.000000	 0.569914
			CHANNELS 3 Zrotation Xrotation Yrotation
			JOINT LeftFoot
			{
				OFFSET	 0.000000	 0.000000	 0.544423
				CHANNELS 3 Zrotation Xrotation Yrotation
				JOINT LeftToeBase
				{
					OFFSET	 0.000000	 0.000000	 0.207117
					CHANNELS 3 Zrotation Xrotation Yrotation
					End Site
					{
						OFFSET	 0.000000	 0.000000	 0.207117
					}
				}
			}
		}
	}
	JOINT RightUpLeg
	{
		OFFSET	-0.124023	-0.008373	-0.065224
		CHANNELS 3 Zrotation Xrotation Yrotation
		JOINT RightLeg
		{
			OFFSET	 0.000000	 0.000000	 0.570047
			CHANNELS 3 Zrotation Xrotation Yrotation
			JOINT RightFoot
			{
				OFFSET	 0.000000	 0.000000	 0.544354
				CHANNELS 3 Zrotation Xrotation Yrotation
				JOINT RightToeBase
				{
					OFFSET	 0.000000	 0.000000	 0.207540
					CHANNELS 3 Zrotation Xrotation Yrotation
					End Site
					{
						OFFSET	 0.000000	 0.000000	 0.207540
					}
				}
			}
		}
	}
	JOINT Spine
	{
		OFFSET	 0.000184	-0.007763	 0.117403
		CHANNELS 3 Zrotation Xrotation Yrotation
		JOINT Spine1
		{
			OFFSET	 0.000000	 0.000000	 0.137269
			CHANNELS 3 Zrotation Xrotation Yrotation
			JOINT Spine2
			{
				OFFSET	 0.000000	 0.000000	 0.156879
				CHANNELS 3 Zrotation Xrotation Yrotation
				JOINT LeftShoulder
				{
					OFFSET	 0.080501	-0.002496	 0.160144
					CHANNELS 3 Zrotation Xrotation Yrotation
					JOINT LeftArm
					{
						OFFSET	 0.000000	 0.000000	 0.164363
						CHANNELS 3 Zrotation Xrotation Yrotation
						JOINT LeftForeArm
						{
							OFFSET	 0.000000	 0.000000	 0.364576
							CHANNELS 3 Zrotation Xrotation Yrotation
							JOINT LeftHand
							{
								OFFSET	 0.000000	 0.000000	 0.360812
								CHANNELS 3 Zrotation Xrotation Yrotation
								JOINT LeftHandIndex1
								{
									OFFSET	 0.000000	 0.000000	 0.086006
									CHANNELS 3 Zrotation Xrotation Yrotation
									JOINT LeftHandIndex2
									{
										OFFSET	 0.000000	 0.000000	 0.047236
										CHANNELS 3 Zrotation Xrotation Yrotation
										JOINT LeftHandIndex3
										{
											OFFSET	-0.004284	-0.000551	 0.038166
											CHANNELS 3 Zrotation Xrotation Yrotation
											End Site
											{
												OFFSET	-0.004284	-0.000551	 0.038166
											}
										}
									}
								}
							}
						}
					}
				}
				JOINT Neck
				{
					OFFSET	 0.000000	 0.000000	 0.176489
					CHANNELS 3 Zrotation Xrotation Yrotation
					JOINT Head
					{
						OFFSET	 0.000000	-0.001747	 0.077940
						CHANNELS 3 Zrotation Xrotation Yrotation
						End Site
						{
							OFFSET	 0.000000	-0.001747	 0.077940
						}
					}
				}
				JOINT RightShoulder
				{
					OFFSET	-0.080363	 0.000306	 0.159706
					CHANNELS 3 Zrotation Xrotation Yrotation
					JOINT RightArm
					{
						OFFSET	 0.000000	 0.000000	 0.164196
						CHANNELS 3 Zrotation Xrotation Yrotation
						JOINT RightForeArm
						{
							OFFSET	 0.000000	 0.000000	 0.365611
							CHANNELS 3 Zrotation Xrotation Yrotation
							JOINT RightHand
							{
								OFFSET	 0.000000	 0.000000	 0.360648
								CHANNELS 3 Zrotation Xrotation Yrotation
								JOINT RightHandIndex1
								{
									OFFSET	 0.000000	 0.000000	 0.069977
									CHANNELS 3 Zrotation Xrotation Yrotation
									JOINT RightHandIndex2
									{
										OFFSET	 0.000000	 0.000000	 0.052305
										CHANNELS 3 Zrotation Xrotation Yrotation
										JOINT RightHandIndex3
										{
											OFFSET	 0.009002	-0.000782	 0.042196
											CHANNELS 3 Zrotation Xrotation Yrotation
											End Site
											{
												OFFSET	 0.009002	-0.000782	 0.042196
											}
										}
									}
								}
							}
						}
					}
				}
			}
		}
	}
}
MOTION
Frames:    4
Frame Time: 0.03333334
-0.056340	-2.214371	 1.203586	 3.930400	-1.685834	-2.879306	-6.717138	-13.680000	-170.589800	 0.239661	-38.556870	-0.059909	 44.659780	 79.965440	-48.095810	-2.371506	 31.258790	-0.061878	 4.865297	-28.369520	-175.641500	 9.987550	-52.800170	 8.598008	 13.184230	 69.331730	-9.218027	 2.357769	 33.175720	 0.107309	-4.983925	 8.925496	 2.098014	-1.609925	 2.152830	-0.978333	 1.949400	-1.906819	 0.951023	-93.751570	 58.850510	 175.799800	 25.479370	 46.887680	-17.558380	-1.057987	-3.266376	-27.051790	-1.808522	-27.546740	-6.454067	-4.869478	 19.241560	-2.786845	-3.891347	 21.347040	 2.212729	-4.808090	 5.547526	 0.146852	-0.131092	-5.009194	 0.155989	-0.341289	 2.249407	 2.877321	 89.837850	 61.572800	-179.867600	-20.636200	 52.017990	 13.596620	-1.436497	-1.718184	 8.943459	-4.599557	-13.769060	 0.807392	 6.305572	 26.099310	-0.580130	 1.713172	 46.056380	-6.838914	 0.329569	 25.132380	 3.669163
-0.057574	-2.233093	 1.204226	 5.552708	-0.631264	-2.804335	-8.244209	-13.733770	-170.833800	 1.187544	-38.136900	 0.515562	 42.809100	 79.809720	-46.951780	-2.368693	 31.732540	-0.072588	 1.070857	-30.816120	-175.330800	 11.448040	-49.695520	 9.367537	 42.291420	 80.006270	-40.594260	 2.358986	 32.997270	 0.103160	-6.637204	 8.341748	 1.854974	-1.835695	 1.291050	-1.126593	 2.506290	-1.774552	 1.313895	-94.081980	 59.018440	 175.074800	 26.884700	 45.233920	-18.348430	-2.283989	-2.893203	-29.682870	-1.832702	-27.969610	-8.998956	-4.865054	 19.356930	-2.794877	-3.876106	 21.542140	 2.197239	-4.805231	 5.581275	 0.144874	-0.044292	-5.101084	 0.223657	 0.501191	 2.050584	 2.634193	 89.725470	 61.714540	 179.864600	-19.527860	 52.763420	 12.618730	-2.205893	-1.411072	 6.867037	-4.968990	-12.745350	 0.380323	 6.279788	 23.798630	-0.548157	 2.013727	 43.642720	-7.107073	 0.750316	 23.284710	 3.456305
-0.058267	-2.256522	 1.204083	 6.385172	 0.494528	-3.127420	-8.948598	-13.401710	-170.690900	 1.550133	-37.381190	 0.727032	 43.446580	 80.062260	-47.875560	-2.365649	 32.222890	-0.083768	-0.582503	-33.341740	-174.580100	 12.381720	-45.612780	 9.470903	 85.809310	 79.953320	-86.517160	 2.361273	 32.656460	 0.095267	-7.372128	 7.474547	 1.848091	-1.948570	 1.008448	-1.008014	 2.759074	-1.790795	 1.410661	-94.361830	 58.950020	 174.488300	 27.257530	 43.325240	-18.747740	-3.217552	-2.674247	-32.888530	-1.489332	-28.834180	-8.906328	-4.846960	 19.791420	-2.818124	-3.851883	 21.850180	 2.172633	-4.791304	 5.745167	 0.135262	-0.005949	-5.180323	 0.311869	 0.874034	 1.930265	 2.598261	 89.563550	 61.913120	 179.473900	-18.412490	 53.421880	 11.550010	-3.678830	-1.189087	 5.124260	-5.982157	-11.794480	-0.651617	 6.238997	 21.289550	-0.618538	 2.251105	 41.564830	-7.316092	 1.290280	 20.824400	 3.199875
-0.058929	-2.288831	 1.202414	 6.661034	 1.012825	-3.585816	-9.185559	-11.783120	-170.299000	 1.754936	-36.357840	 0.831375	 42.715450	 79.874150	-47.345700	-2.353383	 34.020320	-0.125534	 1.037409	-34.803780	-173.007500	 11.728600	-39.851650	 8.076599	 117.782900	 73.203710	-119.641600	 2.347593	 34.571700	 0.140250	-7.828242	 6.817841	 2.072548	-1.925687	 1.694681	-0.796701	 2.908537	-2.157090	 1.392326	-94.504240	 58.869110	 174.198400	 26.282500	 41.373770	-19.120050	-4.043922	-2.437647	-36.410250	-1.752026	-29.332940	-8.298729	-4.828146	 20.323760	-2.867784	-3.813021	 22.339320	 2.133162	-4.759701	 6.115819	 0.113363	 0.045184	-5.314700	 0.348005	 1.073044	 1.793318	 2.503115	 89.415330	 62.026680	 179.113300	-16.711540	 54.083070	 9.083801	-5.702313	-1.351239	 5.010938	-7.131632	-11.250680	-2.686337	 6.183983	 18.215080	-0.714491	 2.638868	 37.801480	-7.651311	 1.946962	 17.701300	 2.915136
